<svg width="80" height="80" viewBox="0 0 80 80" fill="none" xmlns="http://www.w3.org/2000/svg">
<g clip-path="url(#clip0_1_376)">
<path opacity="0.3" d="M40 79C61.5391 79 79 61.5391 79 40C79 18.4609 61.5391 1 40 1C18.4609 1 1 18.4609 1 40C1 61.5391 18.4609 79 40 79Z" stroke="#8B5CF6" stroke-width="1.2"/>
<path opacity="0.15" d="M40 75C59.33 75 75 59.33 75 40C75 20.67 59.33 5 40 5C20.67 5 5 20.67 5 40C5 59.33 20.67 75 40 75Z" stroke="#8B5CF6" stroke-width="0.6"/>
<path d="M40 72C57.6731 72 72 57.6731 72 40C72 22.3269 57.6731 8 40 8C22.3269 8 8 22.3269 8 40C8 57.6731 22.3269 72 40 72Z" fill="url(#paint0_linear_1_376)"/>
<path opacity="0.96" d="M40 49C48.2843 49 55 42.2843 55 34C55 25.7157 48.2843 19 40 19C31.7157 19 25 25.7157 25 34C25 42.2843 31.7157 49 40 49Z" fill="white"/>
<path d="M34 32.8C35.5464 32.8 36.8 31.5464 36.8 30C36.8 28.4536 35.5464 27.2 34 27.2C32.4536 27.2 31.2 28.4536 31.2 30C31.2 31.5464 32.4536 32.8 34 32.8Z" fill="#7C3AED"/>
<path d="M46 32.8C47.5464 32.8 48.8 31.5464 48.8 30C48.8 28.4536 47.5464 27.2 46 27.2C44.4536 27.2 43.2 28.4536 43.2 30C43.2 31.5464 44.4536 32.8 46 32.8Z" fill="#7C3AED"/>
<path opacity="0.9" d="M35 29.8C35.5523 29.8 36 29.3523 36 28.8C36 28.2477 35.5523 27.8 35 27.8C34.4477 27.8 34 28.2477 34 28.8C34 29.3523 34.4477 29.8 35 29.8Z" fill="white"/>
<path opacity="0.9" d="M47 29.8C47.5523 29.8 48 29.3523 48 28.8C48 28.2477 47.5523 27.8 47 27.8C46.4477 27.8 46 28.2477 46 28.8C46 29.3523 46.4477 29.8 47 29.8Z" fill="white"/>
<path d="M34 37C38 40.3333 42 40.3333 46 37" stroke="#7C3AED" stroke-width="1.8" stroke-linecap="round"/>
<path d="M40 19V13" stroke="#DDD6FE" stroke-width="1.8" stroke-linecap="round"/>
<path d="M40 13.8C41.5464 13.8 42.8 12.5464 42.8 11C42.8 9.4536 41.5464 8.2 40 8.2C38.4536 8.2 37.2 9.4536 37.2 11C37.2 12.5464 38.4536 13.8 40 13.8Z" fill="#EDE9FE"/>
<path d="M40 14.4C40.7732 14.4 41.4 13.7732 41.4 13C41.4 12.2268 40.7732 11.6 40 11.6C39.2268 11.6 38.6 12.2268 38.6 13C38.6 13.7732 39.2268 14.4 40 14.4Z" fill="#A78BFA"/>
<path d="M27 30C27 28.8954 26.1046 28 25 28C23.8954 28 23 28.8954 23 30V34C23 35.1046 23.8954 36 25 36C26.1046 36 27 35.1046 27 34V30Z" fill="white" fill-opacity="0.45"/>
<path d="M57 30C57 28.8954 56.1046 28 55 28C53.8954 28 53 28.8954 53 30V34C53 35.1046 53.8954 36 55 36C56.1046 36 57 35.1046 57 34V30Z" fill="white" fill-opacity="0.45"/>
<path d="M50 51H30C25.5817 51 22 54.5817 22 59C22 63.4183 25.5817 67 30 67H50C54.4183 67 58 63.4183 58 59C58 54.5817 54.4183 51 50 51Z" fill="white" fill-opacity="0.2"/>
<path d="M28 51L23 61L32 51" fill="white" fill-opacity="0.2"/>
<path opacity="0.9" d="M31 61.2C32.215 61.2 33.2 60.215 33.2 59C33.2 57.785 32.215 56.8 31 56.8C29.785 56.8 28.8 57.785 28.8 59C28.8 60.215 29.785 61.2 31 61.2Z" fill="white"/>
<path opacity="0.6" d="M40 61.2C41.215 61.2 42.2 60.215 42.2 59C42.2 57.785 41.215 56.8 40 56.8C38.785 56.8 37.8 57.785 37.8 59C37.8 60.215 38.785 61.2 40 61.2Z" fill="white"/>
<path opacity="0.3" d="M49 61.2C50.215 61.2 51.2 60.215 51.2 59C51.2 57.785 50.215 56.8 49 56.8C47.785 56.8 46.8 57.785 46.8 59C46.8 60.215 47.785 61.2 49 61.2Z" fill="white"/>
</g>
<defs>
<linearGradient id="paint0_linear_1_376" x1="8" y1="8" x2="94.4" y2="94.4" gradientUnits="userSpaceOnUse">
<stop stop-color="#8B5CF6"/>
<stop offset="1" stop-color="#6D28D9"/>
</linearGradient>
<clipPath id="clip0_1_376">
<rect width="80" height="80" fill="white"/>
</clipPath>
</defs>
</svg>
