<svg width="262" height="63" viewBox="0 0 262 63" fill="none" xmlns="http://www.w3.org/2000/svg">
<path d="M46.5 0.5H16.5C7.66344 0.5 0.5 7.66344 0.5 16.5V46.5C0.5 55.3366 7.66344 62.5 16.5 62.5H46.5C55.3366 62.5 62.5 55.3366 62.5 46.5V16.5C62.5 7.66344 55.3366 0.5 46.5 0.5Z" fill="#F5F3FF" stroke="#DDD6FE"/>
<path d="M31.5 38.5C39.232 38.5 45.5 32.232 45.5 24.5C45.5 16.768 39.232 10.5 31.5 10.5C23.768 10.5 17.5 16.768 17.5 24.5C17.5 32.232 23.768 38.5 31.5 38.5Z" fill="url(#paint0_linear_10_2)"/>
<path d="M26.5 23.9C27.8255 23.9 28.9 22.8255 28.9 21.5C28.9 20.1745 27.8255 19.1 26.5 19.1C25.1745 19.1 24.1 20.1745 24.1 21.5C24.1 22.8255 25.1745 23.9 26.5 23.9Z" fill="white"/>
<path d="M36.5 23.9C37.8255 23.9 38.9 22.8255 38.9 21.5C38.9 20.1745 37.8255 19.1 36.5 19.1C35.1745 19.1 34.1 20.1745 34.1 21.5C34.1 22.8255 35.1745 23.9 36.5 23.9Z" fill="white"/>
<path opacity="0.9" d="M27.5 21.2C27.9971 21.2 28.4 20.797 28.4 20.3C28.4 19.8029 27.9971 19.4 27.5 19.4C27.003 19.4 26.6 19.8029 26.6 20.3C26.6 20.797 27.003 21.2 27.5 21.2Z" fill="#7C3AED"/>
<path opacity="0.9" d="M37.5 21.2C37.9971 21.2 38.4 20.797 38.4 20.3C38.4 19.8029 37.9971 19.4 37.5 19.4C37.003 19.4 36.6 19.8029 36.6 20.3C36.6 20.797 37.003 21.2 37.5 21.2Z" fill="#7C3AED"/>
<path d="M26.5 27.5C29.8333 30.1667 33.1667 30.1667 36.5 27.5" stroke="white" stroke-width="1.6" stroke-linecap="round"/>
<path d="M33 8.5H30C29.1716 8.5 28.5 9.17157 28.5 10C28.5 10.8284 29.1716 11.5 30 11.5H33C33.8284 11.5 34.5 10.8284 34.5 10C34.5 9.17157 33.8284 8.5 33 8.5Z" fill="#C4B5FD"/>
<path d="M31.5 9.7C32.715 9.7 33.7 8.71503 33.7 7.5C33.7 6.28498 32.715 5.3 31.5 5.3C30.285 5.3 29.3 6.28498 29.3 7.5C29.3 8.71503 30.285 9.7 31.5 9.7Z" fill="#DDD6FE"/>
<path d="M31.5 10.1C32.1075 10.1 32.6 9.60751 32.6 8.99999C32.6 8.39248 32.1075 7.89999 31.5 7.89999C30.8925 7.89999 30.4 8.39248 30.4 8.99999C30.4 9.60751 30.8925 10.1 31.5 10.1Z" fill="#8B5CF6"/>
<path opacity="0.8" d="M18.5 21C18.5 20.1716 17.8284 19.5 17 19.5C16.1716 19.5 15.5 20.1716 15.5 21V25C15.5 25.8284 16.1716 26.5 17 26.5C17.8284 26.5 18.5 25.8284 18.5 25V21Z" fill="#C4B5FD"/>
<path opacity="0.8" d="M47.5 21C47.5 20.1716 46.8284 19.5 46 19.5C45.1716 19.5 44.5 20.1716 44.5 21V25C44.5 25.8284 45.1716 26.5 46 26.5C46.8284 26.5 47.5 25.8284 47.5 25V21Z" fill="#C4B5FD"/>
<path d="M41.5 38.5H21.5C17.634 38.5 14.5 41.634 14.5 45.5C14.5 49.366 17.634 52.5 21.5 52.5H41.5C45.366 52.5 48.5 49.366 48.5 45.5C48.5 41.634 45.366 38.5 41.5 38.5Z" fill="white" stroke="#DDD6FE" stroke-width="0.8"/>
<path d="M20.5 38.5L16.5 46.5L24.5 38.5" fill="white"/>
<path d="M20.5 38.5L16.5 46.5L24.5 38.5" stroke="#DDD6FE" stroke-width="0.7" stroke-linejoin="round"/>
<path d="M24.5 47.3C25.4941 47.3 26.3 46.4941 26.3 45.5C26.3 44.5059 25.4941 43.7 24.5 43.7C23.5059 43.7 22.7 44.5059 22.7 45.5C22.7 46.4941 23.5059 47.3 24.5 47.3Z" fill="#8B5CF6"/>
<path opacity="0.6" d="M31.5 47.3C32.4941 47.3 33.3 46.4941 33.3 45.5C33.3 44.5059 32.4941 43.7 31.5 43.7C30.5059 43.7 29.7 44.5059 29.7 45.5C29.7 46.4941 30.5059 47.3 31.5 47.3Z" fill="#8B5CF6"/>
<path opacity="0.3" d="M38.5 47.3C39.4941 47.3 40.3 46.4941 40.3 45.5C40.3 44.5059 39.4941 43.7 38.5 43.7C37.5059 43.7 36.7 44.5059 36.7 45.5C36.7 46.4941 37.5059 47.3 38.5 47.3Z" fill="#8B5CF6"/>
<path d="M86.1307 33.5H78.3963V11.6818H86.1946C88.3892 11.6818 90.2784 12.1186 91.8622 12.9922C93.446 13.8587 94.6641 15.1051 95.5163 16.7315C96.3757 18.358 96.8054 20.304 96.8054 22.5696C96.8054 24.8423 96.3757 26.7955 95.5163 28.429C94.6641 30.0625 93.4389 31.3161 91.8409 32.1896C90.25 33.0632 88.3466 33.5 86.1307 33.5ZM83.0092 29.5476H85.9389C87.3026 29.5476 88.4496 29.3061 89.38 28.8232C90.3175 28.3331 91.0206 27.5767 91.4893 26.554C91.9652 25.5241 92.2031 24.196 92.2031 22.5696C92.2031 20.9574 91.9652 19.6399 91.4893 18.6172C91.0206 17.5945 90.321 16.8416 89.3906 16.3587C88.4602 15.8757 87.3132 15.6342 85.9496 15.6342H83.0092V29.5476ZM107.531 33.8196C105.876 33.8196 104.445 33.468 103.237 32.7649C102.037 32.0547 101.11 31.0675 100.457 29.8033C99.8034 28.532 99.4767 27.0582 99.4767 25.3821C99.4767 23.6918 99.8034 22.2145 100.457 20.9503C101.11 19.679 102.037 18.6918 103.237 17.9886C104.445 17.2784 105.876 16.9233 107.531 16.9233C109.186 16.9233 110.613 17.2784 111.813 17.9886C113.021 18.6918 113.951 19.679 114.605 20.9503C115.258 22.2145 115.585 23.6918 115.585 25.3821C115.585 27.0582 115.258 28.532 114.605 29.8033C113.951 31.0675 113.021 32.0547 111.813 32.7649C110.613 33.468 109.186 33.8196 107.531 33.8196ZM107.552 30.304C108.305 30.304 108.933 30.0909 109.438 29.6648C109.942 29.2315 110.322 28.642 110.578 27.8963C110.84 27.1506 110.972 26.3018 110.972 25.3501C110.972 24.3984 110.84 23.5497 110.578 22.804C110.322 22.0582 109.942 21.4687 109.438 21.0355C108.933 20.6023 108.305 20.3857 107.552 20.3857C106.792 20.3857 106.153 20.6023 105.634 21.0355C105.123 21.4687 104.736 22.0582 104.473 22.804C104.218 23.5497 104.09 24.3984 104.09 25.3501C104.09 26.3018 104.218 27.1506 104.473 27.8963C104.736 28.642 105.123 29.2315 105.634 29.6648C106.153 30.0909 106.792 30.304 107.552 30.304ZM125.929 33.8196C124.274 33.8196 122.843 33.468 121.636 32.7649C120.436 32.0547 119.509 31.0675 118.855 29.8033C118.202 28.532 117.875 27.0582 117.875 25.3821C117.875 23.6918 118.202 22.2145 118.855 20.9503C119.509 19.679 120.436 18.6918 121.636 17.9886C122.843 17.2784 124.274 16.9233 125.929 16.9233C127.584 16.9233 129.012 17.2784 130.212 17.9886C131.419 18.6918 132.35 19.679 133.003 20.9503C133.656 22.2145 133.983 23.6918 133.983 25.3821C133.983 27.0582 133.656 28.532 133.003 29.8033C132.35 31.0675 131.419 32.0547 130.212 32.7649C129.012 33.468 127.584 33.8196 125.929 33.8196ZM125.95 30.304C126.703 30.304 127.332 30.0909 127.836 29.6648C128.34 29.2315 128.72 28.642 128.976 27.8963C129.239 27.1506 129.37 26.3018 129.37 25.3501C129.37 24.3984 129.239 23.5497 128.976 22.804C128.72 22.0582 128.34 21.4687 127.836 21.0355C127.332 20.6023 126.703 20.3857 125.95 20.3857C125.191 20.3857 124.551 20.6023 124.033 21.0355C123.521 21.4687 123.134 22.0582 122.872 22.804C122.616 23.5497 122.488 24.3984 122.488 25.3501C122.488 26.3018 122.616 27.1506 122.872 27.8963C123.134 28.642 123.521 29.2315 124.033 29.6648C124.551 30.0909 125.191 30.304 125.95 30.304ZM142.964 33.7663C141.721 33.7663 140.595 33.4467 139.587 32.8075C138.585 32.1612 137.79 31.2131 137.2 29.9631C136.618 28.706 136.327 27.1648 136.327 25.3395C136.327 23.4645 136.629 21.9055 137.232 20.6626C137.836 19.4126 138.639 18.4787 139.64 17.8608C140.649 17.2358 141.753 16.9233 142.953 16.9233C143.869 16.9233 144.633 17.0795 145.244 17.392C145.862 17.6974 146.359 18.081 146.735 18.5426C147.119 18.9972 147.41 19.4446 147.609 19.8849H147.747V11.6818H152.275V33.5H147.801V30.8793H147.609C147.396 31.3338 147.094 31.7848 146.703 32.2322C146.32 32.6726 145.819 33.0384 145.201 33.3295C144.59 33.6207 143.845 33.7663 142.964 33.7663ZM144.402 30.1548C145.134 30.1548 145.752 29.956 146.256 29.5582C146.767 29.1534 147.158 28.5888 147.428 27.8643C147.705 27.1399 147.843 26.2912 147.843 25.3182C147.843 24.3452 147.708 23.5 147.438 22.7827C147.169 22.0653 146.778 21.5114 146.267 21.1207C145.755 20.7301 145.134 20.5348 144.402 20.5348C143.656 20.5348 143.028 20.7372 142.517 21.142C142.005 21.5469 141.618 22.108 141.355 22.8253C141.093 23.5426 140.961 24.3736 140.961 25.3182C140.961 26.2699 141.093 27.1115 141.355 27.843C141.625 28.5675 142.012 29.1357 142.517 29.5476C143.028 29.9524 143.656 30.1548 144.402 30.1548ZM160.545 11.6818V33.5H156.006V11.6818H160.545ZM171.638 33.8196C169.954 33.8196 168.506 33.4787 167.291 32.7969C166.084 32.108 165.153 31.1349 164.5 29.8778C163.846 28.6136 163.52 27.1186 163.52 25.3928C163.52 23.7095 163.846 22.2322 164.5 20.9609C165.153 19.6896 166.073 18.6989 167.259 17.9886C168.452 17.2784 169.851 16.9233 171.456 16.9233C172.536 16.9233 173.541 17.0973 174.471 17.4453C175.409 17.7862 176.226 18.3011 176.922 18.9901C177.625 19.679 178.172 20.5455 178.562 21.5895C178.953 22.6264 179.148 23.8409 179.148 25.233V26.4794H165.331V23.6669H174.876C174.876 23.0135 174.734 22.4347 174.45 21.9304C174.166 21.4261 173.772 21.032 173.268 20.7479C172.77 20.4567 172.192 20.3111 171.531 20.3111C170.842 20.3111 170.231 20.4709 169.699 20.7905C169.173 21.103 168.761 21.5256 168.463 22.0582C168.165 22.5838 168.012 23.1697 168.005 23.8161V26.4901C168.005 27.2997 168.154 27.9993 168.452 28.5888C168.758 29.1783 169.187 29.6328 169.741 29.9524C170.295 30.272 170.952 30.4318 171.712 30.4318C172.216 30.4318 172.678 30.3608 173.097 30.2188C173.516 30.0767 173.875 29.8636 174.173 29.5795C174.471 29.2955 174.699 28.9474 174.855 28.5355L179.052 28.8125C178.839 29.821 178.403 30.7017 177.742 31.4545C177.089 32.2003 176.243 32.7827 175.206 33.2017C174.177 33.6136 172.987 33.8196 171.638 33.8196Z" fill="#1A1B2E"/>
<path d="M187.157 33.5H182.214L189.746 11.6818H195.69L203.212 33.5H198.268L192.803 16.6676H192.633L187.157 33.5ZM186.848 24.924H198.524V28.5249H186.848V24.924ZM210.451 11.6818V33.5H205.838V11.6818H210.451Z" fill="#7C3AED"/>
<path d="M78.7969 52.5H77.7813L80.7188 44.5H81.7188L84.6563 52.5H83.6406L81.25 45.7656H81.1875L78.7969 52.5ZM79.1719 49.375H83.2656V50.2344H79.1719V49.375ZM86.8711 44.5V52.5H85.9023V44.5H86.8711ZM92.2354 52.5H91.2197L94.1572 44.5H95.1572L98.0947 52.5H97.0791L94.6885 45.7656H94.626L92.2354 52.5ZM92.6104 49.375H96.7041V50.2344H92.6104V49.375ZM103.716 46.5C103.669 46.1042 103.479 45.7969 103.146 45.5781C102.812 45.3594 102.403 45.25 101.919 45.25C101.565 45.25 101.255 45.3073 100.989 45.4219C100.726 45.5365 100.521 45.694 100.372 45.8945C100.226 46.0951 100.153 46.3229 100.153 46.5781C100.153 46.7917 100.204 46.9753 100.306 47.1289C100.41 47.2799 100.543 47.4062 100.704 47.5078C100.866 47.6068 101.035 47.6888 101.212 47.7539C101.389 47.8164 101.552 47.8672 101.7 47.9062L102.513 48.125C102.721 48.1797 102.953 48.2552 103.208 48.3516C103.466 48.4479 103.712 48.5794 103.946 48.7461C104.183 48.9102 104.379 49.1211 104.532 49.3789C104.686 49.6367 104.763 49.9531 104.763 50.3281C104.763 50.7604 104.649 51.151 104.423 51.5C104.199 51.849 103.871 52.1263 103.438 52.332C103.009 52.5378 102.487 52.6406 101.872 52.6406C101.299 52.6406 100.803 52.5482 100.384 52.3633C99.9671 52.1784 99.639 51.9206 99.3994 51.5898C99.1624 51.2591 99.0283 50.875 98.9971 50.4375H99.9971C100.023 50.7396 100.125 50.9896 100.302 51.1875C100.481 51.3828 100.708 51.5286 100.981 51.625C101.257 51.7187 101.554 51.7656 101.872 51.7656C102.242 51.7656 102.574 51.7057 102.868 51.5859C103.162 51.4635 103.396 51.2943 103.567 51.0781C103.739 50.8594 103.825 50.6042 103.825 50.3125C103.825 50.0469 103.751 49.8307 103.603 49.6641C103.454 49.4974 103.259 49.362 103.017 49.2578C102.774 49.1536 102.513 49.0625 102.231 48.9844L101.247 48.7031C100.622 48.5234 100.127 48.2669 99.7627 47.9336C99.3981 47.6003 99.2158 47.1641 99.2158 46.625C99.2158 46.1771 99.3369 45.7865 99.5791 45.4531C99.8239 45.1172 100.152 44.8568 100.563 44.6719C100.978 44.4844 101.44 44.3906 101.95 44.3906C102.466 44.3906 102.924 44.4831 103.325 44.668C103.726 44.8503 104.044 45.1003 104.278 45.418C104.515 45.7357 104.64 46.0964 104.653 46.5H103.716ZM110.73 46.5C110.684 46.1042 110.493 45.7969 110.16 45.5781C109.827 45.3594 109.418 45.25 108.934 45.25C108.579 45.25 108.27 45.3073 108.004 45.4219C107.741 45.5365 107.535 45.694 107.387 45.8945C107.241 46.0951 107.168 46.3229 107.168 46.5781C107.168 46.7917 107.219 46.9753 107.32 47.1289C107.424 47.2799 107.557 47.4062 107.719 47.5078C107.88 47.6068 108.049 47.6888 108.227 47.7539C108.404 47.8164 108.566 47.8672 108.715 47.9062L109.527 48.125C109.736 48.1797 109.967 48.2552 110.223 48.3516C110.48 48.4479 110.727 48.5794 110.961 48.7461C111.198 48.9102 111.393 49.1211 111.547 49.3789C111.701 49.6367 111.777 49.9531 111.777 50.3281C111.777 50.7604 111.664 51.151 111.438 51.5C111.214 51.849 110.885 52.1263 110.453 52.332C110.023 52.5378 109.501 52.6406 108.887 52.6406C108.314 52.6406 107.818 52.5482 107.398 52.3633C106.982 52.1784 106.654 51.9206 106.414 51.5898C106.177 51.2591 106.043 50.875 106.012 50.4375H107.012C107.038 50.7396 107.139 50.9896 107.316 51.1875C107.496 51.3828 107.723 51.5286 107.996 51.625C108.272 51.7187 108.569 51.7656 108.887 51.7656C109.257 51.7656 109.589 51.7057 109.883 51.5859C110.177 51.4635 110.41 51.2943 110.582 51.0781C110.754 50.8594 110.84 50.6042 110.84 50.3125C110.84 50.0469 110.766 49.8307 110.617 49.6641C110.469 49.4974 110.273 49.362 110.031 49.2578C109.789 49.1536 109.527 49.0625 109.246 48.9844L108.262 48.7031C107.637 48.5234 107.142 48.2669 106.777 47.9336C106.413 47.6003 106.23 47.1641 106.23 46.625C106.23 46.1771 106.352 45.7865 106.594 45.4531C106.839 45.1172 107.167 44.8568 107.578 44.6719C107.992 44.4844 108.454 44.3906 108.965 44.3906C109.48 44.3906 109.939 44.4831 110.34 44.668C110.741 44.8503 111.059 45.1003 111.293 45.418C111.53 45.7357 111.655 46.0964 111.668 46.5H110.73ZM114.339 44.5V52.5H113.37V44.5H114.339ZM120.656 46.5C120.609 46.1042 120.419 45.7969 120.086 45.5781C119.753 45.3594 119.344 45.25 118.859 45.25C118.505 45.25 118.195 45.3073 117.93 45.4219C117.667 45.5365 117.461 45.694 117.313 45.8945C117.167 46.0951 117.094 46.3229 117.094 46.5781C117.094 46.7917 117.145 46.9753 117.246 47.1289C117.35 47.2799 117.483 47.4062 117.645 47.5078C117.806 47.6068 117.975 47.6888 118.152 47.7539C118.329 47.8164 118.492 47.8672 118.641 47.9062L119.453 48.125C119.661 48.1797 119.893 48.2552 120.148 48.3516C120.406 48.4479 120.652 48.5794 120.887 48.7461C121.124 48.9102 121.319 49.1211 121.473 49.3789C121.626 49.6367 121.703 49.9531 121.703 50.3281C121.703 50.7604 121.59 51.151 121.363 51.5C121.139 51.849 120.811 52.1263 120.379 52.332C119.949 52.5378 119.427 52.6406 118.812 52.6406C118.24 52.6406 117.743 52.5482 117.324 52.3633C116.908 52.1784 116.579 51.9206 116.34 51.5898C116.103 51.2591 115.969 50.875 115.938 50.4375H116.938C116.964 50.7396 117.065 50.9896 117.242 51.1875C117.422 51.3828 117.648 51.5286 117.922 51.625C118.198 51.7187 118.495 51.7656 118.812 51.7656C119.182 51.7656 119.514 51.7057 119.809 51.5859C120.103 51.4635 120.336 51.2943 120.508 51.0781C120.68 50.8594 120.766 50.6042 120.766 50.3125C120.766 50.0469 120.691 49.8307 120.543 49.6641C120.395 49.4974 120.199 49.362 119.957 49.2578C119.715 49.1536 119.453 49.0625 119.172 48.9844L118.188 48.7031C117.563 48.5234 117.068 48.2669 116.703 47.9336C116.339 47.6003 116.156 47.1641 116.156 46.625C116.156 46.1771 116.277 45.7865 116.52 45.4531C116.764 45.1172 117.092 44.8568 117.504 44.6719C117.918 44.4844 118.38 44.3906 118.891 44.3906C119.406 44.3906 119.865 44.4831 120.266 44.668C120.667 44.8503 120.984 45.1003 121.219 45.418C121.456 45.7357 121.581 46.0964 121.594 46.5H120.656ZM122.858 45.3594V44.5H128.858V45.3594H126.343V52.5H125.374V45.3594H122.858ZM129.747 52.5H128.731L131.669 44.5H132.669L135.606 52.5H134.591L132.2 45.7656H132.138L129.747 52.5ZM130.122 49.375H134.216V50.2344H130.122V49.375ZM143.196 44.5V52.5H142.259L137.899 46.2187H137.821V52.5H136.853V44.5H137.79L142.165 50.7969H142.243V44.5H143.196ZM144.697 45.3594V44.5H150.697V45.3594H148.182V52.5H147.213V45.3594H144.697ZM155.286 52.5V44.5H160.083V45.3594H156.255V48.0625H159.724V48.9219H156.255V52.5H155.286ZM168.492 48.5C168.492 49.3437 168.34 50.0729 168.035 50.6875C167.73 51.3021 167.313 51.776 166.781 52.1094C166.25 52.4427 165.643 52.6094 164.961 52.6094C164.279 52.6094 163.672 52.4427 163.141 52.1094C162.609 51.776 162.191 51.3021 161.887 50.6875C161.582 50.0729 161.43 49.3437 161.43 48.5C161.43 47.6562 161.582 46.9271 161.887 46.3125C162.191 45.6979 162.609 45.224 163.141 44.8906C163.672 44.5573 164.279 44.3906 164.961 44.3906C165.643 44.3906 166.25 44.5573 166.781 44.8906C167.313 45.224 167.73 45.6979 168.035 46.3125C168.34 46.9271 168.492 47.6562 168.492 48.5ZM167.555 48.5C167.555 47.8073 167.439 47.2227 167.207 46.7461C166.978 46.2695 166.667 45.9089 166.273 45.6641C165.883 45.4193 165.445 45.2969 164.961 45.2969C164.477 45.2969 164.038 45.4193 163.645 45.6641C163.254 45.9089 162.943 46.2695 162.711 46.7461C162.482 47.2227 162.367 47.8073 162.367 48.5C162.367 49.1927 162.482 49.7773 162.711 50.2539C162.943 50.7305 163.254 51.0911 163.645 51.3359C164.038 51.5807 164.477 51.7031 164.961 51.7031C165.445 51.7031 165.883 51.5807 166.273 51.3359C166.667 51.0911 166.978 50.7305 167.207 50.2539C167.439 49.7773 167.555 49.1927 167.555 48.5ZM170.121 52.5V44.5H172.824C173.449 44.5 173.962 44.6068 174.363 44.8203C174.764 45.0312 175.061 45.3216 175.254 45.6914C175.447 46.0612 175.543 46.4818 175.543 46.9531C175.543 47.4245 175.447 47.8424 175.254 48.207C175.061 48.5716 174.766 48.8581 174.367 49.0664C173.969 49.2721 173.46 49.375 172.84 49.375H170.652V48.5H172.809C173.236 48.5 173.579 48.4375 173.84 48.3125C174.103 48.1875 174.293 48.0104 174.41 47.7812C174.53 47.5495 174.59 47.2734 174.59 46.9531C174.59 46.6328 174.53 46.3529 174.41 46.1133C174.29 45.8737 174.099 45.6888 173.836 45.5586C173.573 45.4258 173.225 45.3594 172.793 45.3594H171.09V52.5H170.121ZM173.887 48.9062L175.855 52.5H174.73L172.793 48.9062H173.887ZM179.563 44.5H180.673L182.892 48.2344H182.985L185.204 44.5H186.313L183.423 49.2031V52.5H182.454V49.2031L179.563 44.5ZM193.94 48.5C193.94 49.3437 193.788 50.0729 193.483 50.6875C193.179 51.3021 192.761 51.776 192.229 52.1094C191.698 52.4427 191.091 52.6094 190.409 52.6094C189.727 52.6094 189.12 52.4427 188.589 52.1094C188.058 51.776 187.64 51.3021 187.335 50.6875C187.03 50.0729 186.878 49.3437 186.878 48.5C186.878 47.6562 187.03 46.9271 187.335 46.3125C187.64 45.6979 188.058 45.224 188.589 44.8906C189.12 44.5573 189.727 44.3906 190.409 44.3906C191.091 44.3906 191.698 44.5573 192.229 44.8906C192.761 45.224 193.179 45.6979 193.483 46.3125C193.788 46.9271 193.94 47.6562 193.94 48.5ZM193.003 48.5C193.003 47.8073 192.887 47.2227 192.655 46.7461C192.426 46.2695 192.115 45.9089 191.722 45.6641C191.331 45.4193 190.894 45.2969 190.409 45.2969C189.925 45.2969 189.486 45.4193 189.093 45.6641C188.702 45.9089 188.391 46.2695 188.159 46.7461C187.93 47.2227 187.815 47.8073 187.815 48.5C187.815 49.1927 187.93 49.7773 188.159 50.2539C188.391 50.7305 188.702 51.0911 189.093 51.3359C189.486 51.5807 189.925 51.7031 190.409 51.7031C190.894 51.7031 191.331 51.5807 191.722 51.3359C192.115 51.0911 192.426 50.7305 192.655 50.2539C192.887 49.7773 193.003 49.1927 193.003 48.5ZM200.819 44.5H201.788V49.7969C201.788 50.3437 201.659 50.832 201.401 51.2617C201.146 51.6888 200.785 52.026 200.319 52.2734C199.853 52.5182 199.306 52.6406 198.679 52.6406C198.051 52.6406 197.504 52.5182 197.038 52.2734C196.572 52.026 196.21 51.6888 195.952 51.2617C195.697 50.832 195.569 50.3437 195.569 49.7969V44.5H196.538V49.7188C196.538 50.1094 196.624 50.457 196.796 50.7617C196.968 51.0638 197.213 51.3021 197.53 51.4766C197.851 51.6484 198.233 51.7344 198.679 51.7344C199.124 51.7344 199.507 51.6484 199.827 51.4766C200.147 51.3021 200.392 51.0638 200.562 50.7617C200.733 50.457 200.819 50.1094 200.819 49.7188V44.5ZM203.723 52.5V44.5H206.426C207.051 44.5 207.564 44.6068 207.965 44.8203C208.366 45.0312 208.663 45.3216 208.855 45.6914C209.048 46.0612 209.145 46.4818 209.145 46.9531C209.145 47.4245 209.048 47.8424 208.855 48.207C208.663 48.5716 208.367 48.8581 207.969 49.0664C207.57 49.2721 207.061 49.375 206.441 49.375H204.254V48.5H206.41C206.837 48.5 207.181 48.4375 207.441 48.3125C207.704 48.1875 207.895 48.0104 208.012 47.7812C208.132 47.5495 208.191 47.2734 208.191 46.9531C208.191 46.6328 208.132 46.3529 208.012 46.1133C207.892 45.8737 207.701 45.6888 207.438 45.5586C207.174 45.4258 206.827 45.3594 206.395 45.3594H204.691V52.5H203.723ZM207.488 48.9062L209.457 52.5H208.332L206.395 48.9062H207.488ZM215.306 52.5L213.118 44.5H214.103L215.774 51.0156H215.853L217.556 44.5H218.649L220.353 51.0156H220.431L222.103 44.5H223.087L220.899 52.5H219.899L218.134 46.125H218.071L216.306 52.5H215.306ZM224.294 52.5V44.5H229.122V45.3594H225.263V48.0625H228.872V48.9219H225.263V51.6406H229.185V52.5H224.294ZM230.868 52.5V44.5H233.665C234.222 44.5 234.682 44.5964 235.044 44.7891C235.406 44.9792 235.675 45.2357 235.853 45.5586C236.03 45.8789 236.118 46.2344 236.118 46.625C236.118 46.9687 236.057 47.2526 235.935 47.4766C235.815 47.7005 235.656 47.8776 235.458 48.0078C235.263 48.138 235.05 48.2344 234.821 48.2969V48.375C235.066 48.3906 235.312 48.4766 235.56 48.6328C235.807 48.7891 236.014 49.013 236.181 49.3047C236.347 49.5964 236.431 49.9531 236.431 50.375C236.431 50.776 236.34 51.1367 236.157 51.457C235.975 51.7773 235.687 52.0312 235.294 52.2187C234.901 52.4062 234.389 52.5 233.759 52.5H230.868ZM231.837 51.6406H233.759C234.392 51.6406 234.841 51.5182 235.106 51.2734C235.375 51.026 235.509 50.7266 235.509 50.375C235.509 50.1042 235.44 49.8542 235.302 49.625C235.164 49.3932 234.967 49.2083 234.712 49.0703C234.457 48.9297 234.155 48.8594 233.806 48.8594H231.837V51.6406ZM231.837 48.0156H233.634C233.925 48.0156 234.188 47.9583 234.423 47.8437C234.66 47.7292 234.847 47.5677 234.985 47.3594C235.126 47.151 235.196 46.9062 235.196 46.625C235.196 46.2734 235.074 45.9753 234.829 45.7305C234.584 45.4831 234.196 45.3594 233.665 45.3594H231.837V48.0156ZM242.397 46.5C242.351 46.1042 242.16 45.7969 241.827 45.5781C241.494 45.3594 241.085 45.25 240.601 45.25C240.246 45.25 239.937 45.3073 239.671 45.4219C239.408 45.5365 239.202 45.694 239.054 45.8945C238.908 46.0951 238.835 46.3229 238.835 46.5781C238.835 46.7917 238.886 46.9753 238.987 47.1289C239.091 47.2799 239.224 47.4062 239.386 47.5078C239.547 47.6068 239.716 47.6888 239.894 47.7539C240.071 47.8164 240.233 47.8672 240.382 47.9062L241.194 48.125C241.403 48.1797 241.634 48.2552 241.89 48.3516C242.147 48.4479 242.394 48.5794 242.628 48.7461C242.865 48.9102 243.06 49.1211 243.214 49.3789C243.368 49.6367 243.444 49.9531 243.444 50.3281C243.444 50.7604 243.331 51.151 243.104 51.5C242.881 51.849 242.552 52.1263 242.12 52.332C241.69 52.5378 241.168 52.6406 240.554 52.6406C239.981 52.6406 239.485 52.5482 239.065 52.3633C238.649 52.1784 238.321 51.9206 238.081 51.5898C237.844 51.2591 237.71 50.875 237.679 50.4375H238.679C238.705 50.7396 238.806 50.9896 238.983 51.1875C239.163 51.3828 239.39 51.5286 239.663 51.625C239.939 51.7187 240.236 51.7656 240.554 51.7656C240.924 51.7656 241.256 51.7057 241.55 51.5859C241.844 51.4635 242.077 51.2943 242.249 51.0781C242.421 50.8594 242.507 50.6042 242.507 50.3125C242.507 50.0469 242.433 49.8307 242.284 49.6641C242.136 49.4974 241.94 49.362 241.698 49.2578C241.456 49.1536 241.194 49.0625 240.913 48.9844L239.929 48.7031C239.304 48.5234 238.809 48.2669 238.444 47.9336C238.08 47.6003 237.897 47.1641 237.897 46.625C237.897 46.1771 238.019 45.7865 238.261 45.4531C238.506 45.1172 238.834 44.8568 239.245 44.6719C239.659 44.4844 240.121 44.3906 240.632 44.3906C241.147 44.3906 241.606 44.4831 242.007 44.668C242.408 44.8503 242.726 45.1003 242.96 45.418C243.197 45.7357 243.322 46.0964 243.335 46.5H242.397ZM246.006 44.5V52.5H245.037V44.5H246.006ZM247.511 45.3594V44.5H253.511V45.3594H250.995V52.5H250.026V45.3594H247.511ZM255.006 52.5V44.5H259.834V45.3594H255.975V48.0625H259.584V48.9219H255.975V51.6406H259.896V52.5H255.006Z" fill="#9CA3AF"/>
<defs>
<linearGradient id="paint0_linear_10_2" x1="17.5" y1="10.5" x2="55.3" y2="48.3" gradientUnits="userSpaceOnUse">
<stop stop-color="#8B5CF6"/>
<stop offset="1" stop-color="#6D28D9"/>
</linearGradient>
</defs>
</svg>
