<svg width="255" height="65" viewBox="0 0 255 65" fill="none" xmlns="http://www.w3.org/2000/svg">
<path d="M48 0H16C7.16344 0 0 7.16344 0 16V48C0 56.8366 7.16344 64 16 64H48C56.8366 64 64 56.8366 64 48V16C64 7.16344 56.8366 0 48 0Z" fill="#1A1B2E" stroke="#2D2F4A" stroke-width="0.8"/>
<path d="M32 42C39.732 42 46 35.732 46 28C46 20.268 39.732 14 32 14C24.268 14 18 20.268 18 28C18 35.732 24.268 42 32 42Z" fill="url(#paint0_linear_1_397)"/>
<path d="M27 27.4C28.3255 27.4 29.4 26.3255 29.4 25C29.4 23.6745 28.3255 22.6 27 22.6C25.6745 22.6 24.6 23.6745 24.6 25C24.6 26.3255 25.6745 27.4 27 27.4Z" fill="#1A1B2E"/>
<path d="M37 27.4C38.3255 27.4 39.4 26.3255 39.4 25C39.4 23.6745 38.3255 22.6 37 22.6C35.6745 22.6 34.6 23.6745 34.6 25C34.6 26.3255 35.6745 27.4 37 27.4Z" fill="#1A1B2E"/>
<path opacity="0.9" d="M28 25C28.4971 25 28.9 24.5971 28.9 24.1C28.9 23.603 28.4971 23.2 28 23.2C27.5029 23.2 27.1 23.603 27.1 24.1C27.1 24.5971 27.5029 25 28 25Z" fill="white"/>
<path opacity="0.9" d="M38 25C38.4971 25 38.9 24.5971 38.9 24.1C38.9 23.603 38.4971 23.2 38 23.2C37.503 23.2 37.1 23.603 37.1 24.1C37.1 24.5971 37.503 25 38 25Z" fill="white"/>
<path d="M27 31C30.3333 33.6667 33.6667 33.6667 37 31" stroke="#1A1B2E" stroke-width="1.6" stroke-linecap="round"/>
<path d="M33.5 12H30.5C29.6716 12 29 12.6716 29 13.5C29 14.3284 29.6716 15 30.5 15H33.5C34.3284 15 35 14.3284 35 13.5C35 12.6716 34.3284 12 33.5 12Z" fill="#A78BFA"/>
<path d="M32 13.2C33.215 13.2 34.2 12.215 34.2 11C34.2 9.78496 33.215 8.79999 32 8.79999C30.785 8.79999 29.8 9.78496 29.8 11C29.8 12.215 30.785 13.2 32 13.2Z" fill="#C4B5FD"/>
<path d="M32 13.6C32.6075 13.6 33.1 13.1075 33.1 12.5C33.1 11.8925 32.6075 11.4 32 11.4C31.3925 11.4 30.9 11.8925 30.9 12.5C30.9 13.1075 31.3925 13.6 32 13.6Z" fill="#7C3AED"/>
<path opacity="0.7" d="M19.5 25.75C19.5 24.7835 18.7165 24 17.75 24C16.7835 24 16 24.7835 16 25.75V29.25C16 30.2165 16.7835 31 17.75 31C18.7165 31 19.5 30.2165 19.5 29.25V25.75Z" fill="#A78BFA"/>
<path opacity="0.7" d="M48 25.75C48 24.7835 47.2165 24 46.25 24C45.2835 24 44.5 24.7835 44.5 25.75V29.25C44.5 30.2165 45.2835 31 46.25 31C47.2165 31 48 30.2165 48 29.25V25.75Z" fill="#A78BFA"/>
<path d="M42.5 42H21.5C17.3579 42 14 45.3579 14 49.5C14 53.6421 17.3579 57 21.5 57H42.5C46.6421 57 50 53.6421 50 49.5C50 45.3579 46.6421 42 42.5 42Z" fill="#252640" stroke="#3D3F6E" stroke-width="0.7"/>
<path d="M20 42L16 50L24 42" fill="#252640"/>
<path d="M20 42L16 50L24 42" stroke="#3D3F6E" stroke-width="0.6" stroke-linejoin="round"/>
<path d="M24 51.3C24.9941 51.3 25.8 50.4941 25.8 49.5C25.8 48.5059 24.9941 47.7 24 47.7C23.0059 47.7 22.2 48.5059 22.2 49.5C22.2 50.4941 23.0059 51.3 24 51.3Z" fill="#8B5CF6"/>
<path opacity="0.6" d="M32 51.3C32.9941 51.3 33.8 50.4941 33.8 49.5C33.8 48.5059 32.9941 47.7 32 47.7C31.0059 47.7 30.2 48.5059 30.2 49.5C30.2 50.4941 31.0059 51.3 32 51.3Z" fill="#8B5CF6"/>
<path opacity="0.3" d="M40 51.3C40.9941 51.3 41.8 50.4941 41.8 49.5C41.8 48.5059 40.9941 47.7 40 47.7C39.0059 47.7 38.2 48.5059 38.2 49.5C38.2 50.4941 39.0059 51.3 40 51.3Z" fill="#8B5CF6"/>
<path d="M89.6307 37H81.8963V15.1818H89.6946C91.8892 15.1818 93.7784 15.6186 95.3622 16.4922C96.946 17.3587 98.1641 18.6051 99.0163 20.2315C99.8757 21.858 100.305 23.804 100.305 26.0696C100.305 28.3423 99.8757 30.2955 99.0163 31.929C98.1641 33.5625 96.9389 34.8161 95.3409 35.6896C93.75 36.5632 91.8466 37 89.6307 37ZM86.5092 33.0476H89.4389C90.8026 33.0476 91.9496 32.8061 92.88 32.3232C93.8175 31.8331 94.5206 31.0767 94.9893 30.054C95.4652 29.0241 95.7031 27.696 95.7031 26.0696C95.7031 24.4574 95.4652 23.1399 94.9893 22.1172C94.5206 21.0945 93.821 20.3416 92.8906 19.8587C91.9602 19.3757 90.8132 19.1342 89.4496 19.1342H86.5092V33.0476ZM111.031 37.3196C109.376 37.3196 107.945 36.968 106.737 36.2649C105.537 35.5547 104.61 34.5675 103.957 33.3033C103.303 32.032 102.977 30.5582 102.977 28.8821C102.977 27.1918 103.303 25.7145 103.957 24.4503C104.61 23.179 105.537 22.1918 106.737 21.4886C107.945 20.7784 109.376 20.4233 111.031 20.4233C112.686 20.4233 114.113 20.7784 115.313 21.4886C116.521 22.1918 117.451 23.179 118.105 24.4503C118.758 25.7145 119.085 27.1918 119.085 28.8821C119.085 30.5582 118.758 32.032 118.105 33.3033C117.451 34.5675 116.521 35.5547 115.313 36.2649C114.113 36.968 112.686 37.3196 111.031 37.3196ZM111.052 33.804C111.805 33.804 112.433 33.5909 112.938 33.1648C113.442 32.7315 113.822 32.142 114.078 31.3963C114.34 30.6506 114.472 29.8018 114.472 28.8501C114.472 27.8984 114.34 27.0497 114.078 26.304C113.822 25.5582 113.442 24.9687 112.938 24.5355C112.433 24.1023 111.805 23.8857 111.052 23.8857C110.292 23.8857 109.653 24.1023 109.134 24.5355C108.623 24.9687 108.236 25.5582 107.973 26.304C107.718 27.0497 107.59 27.8984 107.59 28.8501C107.59 29.8018 107.718 30.6506 107.973 31.3963C108.236 32.142 108.623 32.7315 109.134 33.1648C109.653 33.5909 110.292 33.804 111.052 33.804ZM129.429 37.3196C127.774 37.3196 126.343 36.968 125.136 36.2649C123.936 35.5547 123.009 34.5675 122.355 33.3033C121.702 32.032 121.375 30.5582 121.375 28.8821C121.375 27.1918 121.702 25.7145 122.355 24.4503C123.009 23.179 123.936 22.1918 125.136 21.4886C126.343 20.7784 127.774 20.4233 129.429 20.4233C131.084 20.4233 132.512 20.7784 133.712 21.4886C134.919 22.1918 135.85 23.179 136.503 24.4503C137.156 25.7145 137.483 27.1918 137.483 28.8821C137.483 30.5582 137.156 32.032 136.503 33.3033C135.85 34.5675 134.919 35.5547 133.712 36.2649C132.512 36.968 131.084 37.3196 129.429 37.3196ZM129.45 33.804C130.203 33.804 130.832 33.5909 131.336 33.1648C131.84 32.7315 132.22 32.142 132.476 31.3963C132.739 30.6506 132.87 29.8018 132.87 28.8501C132.87 27.8984 132.739 27.0497 132.476 26.304C132.22 25.5582 131.84 24.9687 131.336 24.5355C130.832 24.1023 130.203 23.8857 129.45 23.8857C128.691 23.8857 128.051 24.1023 127.533 24.5355C127.021 24.9687 126.634 25.5582 126.372 26.304C126.116 27.0497 125.988 27.8984 125.988 28.8501C125.988 29.8018 126.116 30.6506 126.372 31.3963C126.634 32.142 127.021 32.7315 127.533 33.1648C128.051 33.5909 128.691 33.804 129.45 33.804ZM146.464 37.2663C145.221 37.2663 144.095 36.9467 143.087 36.3075C142.085 35.6612 141.29 34.7131 140.7 33.4631C140.118 32.206 139.827 30.6648 139.827 28.8395C139.827 26.9645 140.129 25.4055 140.732 24.1626C141.336 22.9126 142.139 21.9787 143.14 21.3608C144.149 20.7358 145.253 20.4233 146.453 20.4233C147.369 20.4233 148.133 20.5795 148.744 20.892C149.362 21.1974 149.859 21.581 150.235 22.0426C150.619 22.4972 150.91 22.9446 151.109 23.3849H151.247V15.1818H155.775V37H151.301V34.3793H151.109C150.896 34.8338 150.594 35.2848 150.203 35.7322C149.82 36.1726 149.319 36.5384 148.701 36.8295C148.09 37.1207 147.345 37.2663 146.464 37.2663ZM147.902 33.6548C148.634 33.6548 149.252 33.456 149.756 33.0582C150.267 32.6534 150.658 32.0888 150.928 31.3643C151.205 30.6399 151.343 29.7912 151.343 28.8182C151.343 27.8452 151.208 27 150.938 26.2827C150.669 25.5653 150.278 25.0114 149.767 24.6207C149.255 24.2301 148.634 24.0348 147.902 24.0348C147.156 24.0348 146.528 24.2372 146.017 24.642C145.505 25.0469 145.118 25.608 144.855 26.3253C144.593 27.0426 144.461 27.8736 144.461 28.8182C144.461 29.7699 144.593 30.6115 144.855 31.343C145.125 32.0675 145.512 32.6357 146.017 33.0476C146.528 33.4524 147.156 33.6548 147.902 33.6548ZM164.045 15.1818V37H159.506V15.1818H164.045ZM175.138 37.3196C173.454 37.3196 172.006 36.9787 170.791 36.2969C169.584 35.608 168.653 34.6349 168 33.3778C167.346 32.1136 167.02 30.6186 167.02 28.8928C167.02 27.2095 167.346 25.7322 168 24.4609C168.653 23.1896 169.573 22.1989 170.759 21.4886C171.952 20.7784 173.351 20.4233 174.956 20.4233C176.036 20.4233 177.041 20.5973 177.971 20.9453C178.909 21.2862 179.726 21.8011 180.422 22.4901C181.125 23.179 181.672 24.0455 182.062 25.0895C182.453 26.1264 182.648 27.3409 182.648 28.733V29.9794H168.831V27.1669H178.376C178.376 26.5135 178.234 25.9347 177.95 25.4304C177.666 24.9261 177.272 24.532 176.768 24.2479C176.27 23.9567 175.692 23.8111 175.031 23.8111C174.342 23.8111 173.731 23.9709 173.199 24.2905C172.673 24.603 172.261 25.0256 171.963 25.5582C171.665 26.0838 171.512 26.6697 171.505 27.3161V29.9901C171.505 30.7997 171.654 31.4993 171.952 32.0888C172.258 32.6783 172.687 33.1328 173.241 33.4524C173.795 33.772 174.452 33.9318 175.212 33.9318C175.716 33.9318 176.178 33.8608 176.597 33.7188C177.016 33.5767 177.375 33.3636 177.673 33.0795C177.971 32.7955 178.199 32.4474 178.355 32.0355L182.552 32.3125C182.339 33.321 181.903 34.2017 181.242 34.9545C180.589 35.7003 179.743 36.2827 178.706 36.7017C177.677 37.1136 176.487 37.3196 175.138 37.3196Z" fill="white"/>
<path d="M190.657 37H185.714L193.246 15.1818H199.19L206.712 37H201.768L196.303 20.1676H196.133L190.657 37ZM190.348 28.424H202.024V32.0249H190.348V28.424ZM213.951 15.1818V37H209.338V15.1818H213.951Z" fill="#8B5CF6"/>
<path d="M83.2628 57H81.2855L84.2983 48.2727H86.6761L89.6847 57H87.7074L85.5213 50.267H85.4531L83.2628 57ZM83.1392 53.5696H87.8097V55.0099H83.1392V53.5696ZM92.5803 48.2727V57H90.7351V48.2727H92.5803ZM98.38 57H96.4027L99.4155 48.2727H101.793L104.802 57H102.825L100.638 50.267H100.57L98.38 57ZM98.2564 53.5696H102.927V55.0099H98.2564V53.5696ZM111.112 52.321L109.45 52.4233C109.422 52.2812 109.36 52.1534 109.267 52.0398C109.173 51.9233 109.049 51.831 108.896 51.7628C108.745 51.6918 108.565 51.6562 108.355 51.6562C108.074 51.6562 107.836 51.7159 107.643 51.8352C107.45 51.9517 107.353 52.108 107.353 52.304C107.353 52.4602 107.416 52.5923 107.541 52.7003C107.666 52.8082 107.88 52.8949 108.184 52.9602L109.369 53.1989C110.005 53.3295 110.48 53.5398 110.792 53.8295C111.105 54.1193 111.261 54.5 111.261 54.9716C111.261 55.4006 111.135 55.777 110.882 56.1009C110.632 56.4247 110.288 56.6776 109.85 56.8594C109.416 57.0384 108.914 57.1278 108.346 57.1278C107.48 57.1278 106.789 56.9474 106.275 56.5866C105.764 56.223 105.464 55.7287 105.376 55.1037L107.162 55.0099C107.216 55.2741 107.346 55.4759 107.554 55.6151C107.761 55.7514 108.027 55.8196 108.35 55.8196C108.669 55.8196 108.924 55.7585 109.118 55.6364C109.314 55.5114 109.413 55.3509 109.416 55.1548C109.413 54.9901 109.343 54.8551 109.207 54.75C109.071 54.642 108.86 54.5597 108.576 54.5028L107.443 54.277C106.804 54.1491 106.328 53.9276 106.015 53.6122C105.706 53.2969 105.551 52.8949 105.551 52.4062C105.551 51.9858 105.664 51.6236 105.892 51.3196C106.122 51.0156 106.444 50.7812 106.859 50.6165C107.277 50.4517 107.765 50.3693 108.325 50.3693C109.152 50.3693 109.802 50.544 110.277 50.8935C110.754 51.2429 111.032 51.7187 111.112 52.321ZM117.85 52.321L116.188 52.4233C116.16 52.2812 116.099 52.1534 116.005 52.0398C115.911 51.9233 115.788 51.831 115.634 51.7628C115.484 51.6918 115.303 51.6562 115.093 51.6562C114.812 51.6562 114.575 51.7159 114.381 51.8352C114.188 51.9517 114.092 52.108 114.092 52.304C114.092 52.4602 114.154 52.5923 114.279 52.7003C114.404 52.8082 114.619 52.8949 114.923 52.9602L116.107 53.1989C116.744 53.3295 117.218 53.5398 117.531 53.8295C117.843 54.1193 117.999 54.5 117.999 54.9716C117.999 55.4006 117.873 55.777 117.62 56.1009C117.37 56.4247 117.026 56.6776 116.589 56.8594C116.154 57.0384 115.653 57.1278 115.085 57.1278C114.218 57.1278 113.528 56.9474 113.013 56.5866C112.502 56.223 112.202 55.7287 112.114 55.1037L113.9 55.0099C113.954 55.2741 114.085 55.4759 114.292 55.6151C114.499 55.7514 114.765 55.8196 115.089 55.8196C115.407 55.8196 115.663 55.7585 115.856 55.6364C116.052 55.5114 116.151 55.3509 116.154 55.1548C116.151 54.9901 116.082 54.8551 115.945 54.75C115.809 54.642 115.599 54.5597 115.315 54.5028L114.181 54.277C113.542 54.1491 113.066 53.9276 112.754 53.6122C112.444 53.2969 112.289 52.8949 112.289 52.4062C112.289 51.9858 112.403 51.6236 112.63 51.3196C112.86 51.0156 113.183 50.7812 113.597 50.6165C114.015 50.4517 114.504 50.3693 115.063 50.3693C115.89 50.3693 116.54 50.544 117.015 50.8935C117.492 51.2429 117.771 51.7187 117.85 52.321ZM119.142 57V50.4545H120.958V57H119.142ZM120.054 49.6108C119.784 49.6108 119.553 49.5213 119.36 49.3423C119.169 49.1605 119.074 48.9432 119.074 48.6903C119.074 48.4403 119.169 48.2259 119.36 48.0469C119.553 47.8651 119.784 47.7741 120.054 47.7741C120.324 47.7741 120.554 47.8651 120.745 48.0469C120.938 48.2259 121.034 48.4403 121.034 48.6903C121.034 48.9432 120.938 49.1605 120.745 49.3423C120.554 49.5213 120.324 49.6108 120.054 49.6108ZM127.858 52.321L126.196 52.4233C126.168 52.2812 126.107 52.1534 126.013 52.0398C125.919 51.9233 125.795 51.831 125.642 51.7628C125.491 51.6918 125.311 51.6562 125.101 51.6562C124.82 51.6562 124.582 51.7159 124.389 51.8352C124.196 51.9517 124.099 52.108 124.099 52.304C124.099 52.4602 124.162 52.5923 124.287 52.7003C124.412 52.8082 124.626 52.8949 124.93 52.9602L126.115 53.1989C126.751 53.3295 127.226 53.5398 127.538 53.8295C127.851 54.1193 128.007 54.5 128.007 54.9716C128.007 55.4006 127.881 55.777 127.628 56.1009C127.378 56.4247 127.034 56.6776 126.597 56.8594C126.162 57.0384 125.661 57.1278 125.092 57.1278C124.226 57.1278 123.536 56.9474 123.021 56.5866C122.51 56.223 122.21 55.7287 122.122 55.1037L123.908 55.0099C123.962 55.2741 124.092 55.4759 124.3 55.6151C124.507 55.7514 124.773 55.8196 125.097 55.8196C125.415 55.8196 125.67 55.7585 125.864 55.6364C126.06 55.5114 126.159 55.3509 126.162 55.1548C126.159 54.9901 126.089 54.8551 125.953 54.75C125.817 54.642 125.607 54.5597 125.322 54.5028L124.189 54.277C123.55 54.1491 123.074 53.9276 122.761 53.6122C122.452 53.2969 122.297 52.8949 122.297 52.4062C122.297 51.9858 122.411 51.6236 122.638 51.3196C122.868 51.0156 123.19 50.7812 123.605 50.6165C124.023 50.4517 124.511 50.3693 125.071 50.3693C125.898 50.3693 126.548 50.544 127.023 50.8935C127.5 51.2429 127.778 51.7187 127.858 52.321ZM132.632 50.4545V51.8182H128.69V50.4545H132.632ZM129.585 48.8864H131.4V54.9886C131.4 55.1562 131.426 55.2869 131.477 55.3807C131.528 55.4716 131.599 55.5355 131.69 55.5724C131.784 55.6094 131.892 55.6278 132.014 55.6278C132.099 55.6278 132.184 55.6207 132.27 55.6065C132.355 55.5895 132.42 55.5767 132.466 55.5682L132.751 56.919C132.66 56.9474 132.532 56.9801 132.368 57.017C132.203 57.0568 132.002 57.081 131.767 57.0895C131.329 57.1065 130.946 57.0483 130.616 56.9148C130.289 56.7812 130.035 56.5739 129.853 56.2926C129.672 56.0114 129.582 55.6562 129.585 55.2273V48.8864ZM135.681 57.1236C135.263 57.1236 134.891 57.0511 134.564 56.9062C134.238 56.7585 133.979 56.5412 133.789 56.2543C133.601 55.9645 133.507 55.6037 133.507 55.1719C133.507 54.8082 133.574 54.5028 133.708 54.2557C133.841 54.0085 134.023 53.8097 134.253 53.6591C134.483 53.5085 134.745 53.3949 135.037 53.3182C135.333 53.2415 135.642 53.1875 135.966 53.1562C136.347 53.1165 136.654 53.0795 136.887 53.0455C137.12 53.0085 137.289 52.9545 137.394 52.8835C137.499 52.8125 137.551 52.7074 137.551 52.5682V52.5426C137.551 52.2727 137.466 52.0639 137.296 51.9162C137.128 51.7685 136.89 51.6946 136.58 51.6946C136.253 51.6946 135.993 51.767 135.8 51.9119C135.607 52.054 135.479 52.233 135.417 52.4489L133.738 52.3125C133.823 51.9148 133.99 51.571 134.24 51.2812C134.49 50.9886 134.813 50.7642 135.208 50.608C135.605 50.4489 136.066 50.3693 136.588 50.3693C136.952 50.3693 137.3 50.4119 137.632 50.4972C137.968 50.5824 138.265 50.7145 138.523 50.8935C138.784 51.0724 138.99 51.3026 139.141 51.5838C139.292 51.8622 139.367 52.196 139.367 52.5852V57H137.645V56.0923H137.594C137.489 56.2969 137.348 56.4773 137.172 56.6335C136.996 56.7869 136.784 56.9077 136.537 56.9957C136.29 57.081 136.005 57.1236 135.681 57.1236ZM136.201 55.8707C136.468 55.8707 136.703 55.8182 136.908 55.7131C137.113 55.6051 137.273 55.4602 137.39 55.2784C137.506 55.0966 137.564 54.8906 137.564 54.6605V53.9659C137.507 54.0028 137.429 54.0369 137.33 54.0682C137.233 54.0966 137.124 54.1236 137.002 54.1491C136.88 54.1719 136.757 54.1932 136.635 54.2131C136.513 54.2301 136.402 54.2457 136.303 54.2599C136.09 54.2912 135.904 54.3409 135.745 54.4091C135.586 54.4773 135.462 54.5696 135.374 54.6861C135.286 54.7997 135.242 54.9418 135.242 55.1122C135.242 55.3594 135.331 55.5483 135.51 55.679C135.692 55.8068 135.922 55.8707 136.201 55.8707ZM142.591 53.2159V57H140.775V50.4545H142.505V51.6094H142.582C142.727 51.2287 142.97 50.9276 143.311 50.706C143.652 50.4815 144.065 50.3693 144.551 50.3693C145.005 50.3693 145.402 50.4688 145.74 50.6676C146.078 50.8665 146.341 51.1506 146.528 51.5199C146.716 51.8864 146.809 52.3239 146.809 52.8324V57H144.994V53.1562C144.997 52.7557 144.895 52.4432 144.687 52.2188C144.48 51.9915 144.194 51.8778 143.831 51.8778C143.586 51.8778 143.37 51.9304 143.183 52.0355C142.998 52.1406 142.853 52.294 142.748 52.4957C142.646 52.6946 142.593 52.9347 142.591 53.2159ZM151.722 50.4545V51.8182H147.78V50.4545H151.722ZM148.675 48.8864H150.49V54.9886C150.49 55.1562 150.516 55.2869 150.567 55.3807C150.618 55.4716 150.689 55.5355 150.78 55.5724C150.874 55.6094 150.982 55.6278 151.104 55.6278C151.189 55.6278 151.274 55.6207 151.359 55.6065C151.445 55.5895 151.51 55.5767 151.555 55.5682L151.841 56.919C151.75 56.9474 151.622 56.9801 151.457 57.017C151.293 57.0568 151.092 57.081 150.857 57.0895C150.419 57.1065 150.036 57.0483 149.706 56.9148C149.379 56.7812 149.125 56.5739 148.943 56.2926C148.761 56.0114 148.672 55.6562 148.675 55.2273V48.8864ZM155.716 57V48.2727H161.494V49.794H157.561V51.8736H161.11V53.3949H157.561V57H155.716ZM165.178 57.1278C164.516 57.1278 163.944 56.9872 163.461 56.706C162.98 56.4219 162.61 56.027 162.348 55.5213C162.087 55.0128 161.956 54.4233 161.956 53.7528C161.956 53.0767 162.087 52.4858 162.348 51.9801C162.61 51.4716 162.98 51.0767 163.461 50.7955C163.944 50.5114 164.516 50.3693 165.178 50.3693C165.84 50.3693 166.411 50.5114 166.891 50.7955C167.374 51.0767 167.746 51.4716 168.007 51.9801C168.269 52.4858 168.4 53.0767 168.4 53.7528C168.4 54.4233 168.269 55.0128 168.007 55.5213C167.746 56.027 167.374 56.4219 166.891 56.706C166.411 56.9872 165.84 57.1278 165.178 57.1278ZM165.186 55.7216C165.488 55.7216 165.739 55.6364 165.941 55.4659C166.142 55.2926 166.294 55.0568 166.397 54.7585C166.502 54.4602 166.554 54.1207 166.554 53.7401C166.554 53.3594 166.502 53.0199 166.397 52.7216C166.294 52.4233 166.142 52.1875 165.941 52.0142C165.739 51.8409 165.488 51.7543 165.186 51.7543C164.882 51.7543 164.627 51.8409 164.419 52.0142C164.215 52.1875 164.06 52.4233 163.955 52.7216C163.853 53.0199 163.801 53.3594 163.801 53.7401C163.801 54.1207 163.853 54.4602 163.955 54.7585C164.06 55.0568 164.215 55.2926 164.419 55.4659C164.627 55.6364 164.882 55.7216 165.186 55.7216ZM169.58 57V50.4545H171.34V51.5966H171.408C171.527 51.1903 171.728 50.8835 172.009 50.6761C172.29 50.4659 172.614 50.3608 172.98 50.3608C173.071 50.3608 173.169 50.3665 173.275 50.3778C173.38 50.3892 173.472 50.4048 173.551 50.4247V52.0355C173.466 52.0099 173.348 51.9872 173.198 51.9673C173.047 51.9474 172.909 51.9375 172.784 51.9375C172.517 51.9375 172.279 51.9957 172.069 52.1122C171.861 52.2259 171.696 52.3849 171.574 52.5895C171.455 52.794 171.395 53.0298 171.395 53.2969V57H169.58ZM176.79 48.2727H178.857L180.847 52.0312H180.932L182.922 48.2727H184.989L181.806 53.9148V57H179.973V53.9148L176.79 48.2727ZM187.549 57.1278C186.887 57.1278 186.315 56.9872 185.832 56.706C185.352 56.4219 184.981 56.027 184.719 55.5213C184.458 55.0128 184.327 54.4233 184.327 53.7528C184.327 53.0767 184.458 52.4858 184.719 51.9801C184.981 51.4716 185.352 51.0767 185.832 50.7955C186.315 50.5114 186.887 50.3693 187.549 50.3693C188.211 50.3693 188.782 50.5114 189.262 50.7955C189.745 51.0767 190.117 51.4716 190.379 51.9801C190.64 52.4858 190.771 53.0767 190.771 53.7528C190.771 54.4233 190.64 55.0128 190.379 55.5213C190.117 56.027 189.745 56.4219 189.262 56.706C188.782 56.9872 188.211 57.1278 187.549 57.1278ZM187.558 55.7216C187.859 55.7216 188.11 55.6364 188.312 55.4659C188.513 55.2926 188.665 55.0568 188.768 54.7585C188.873 54.4602 188.925 54.1207 188.925 53.7401C188.925 53.3594 188.873 53.0199 188.768 52.7216C188.665 52.4233 188.513 52.1875 188.312 52.0142C188.11 51.8409 187.859 51.7543 187.558 51.7543C187.254 51.7543 186.998 51.8409 186.79 52.0142C186.586 52.1875 186.431 52.4233 186.326 52.7216C186.224 53.0199 186.173 53.3594 186.173 53.7401C186.173 54.1207 186.224 54.4602 186.326 54.7585C186.431 55.0568 186.586 55.2926 186.79 55.4659C186.998 55.6364 187.254 55.7216 187.558 55.7216ZM196.148 54.2131V50.4545H197.964V57H196.221V55.8111H196.153C196.005 56.1946 195.759 56.5028 195.415 56.7358C195.075 56.9687 194.658 57.0852 194.167 57.0852C193.729 57.0852 193.344 56.9858 193.012 56.7869C192.68 56.5881 192.42 56.3054 192.232 55.9389C192.048 55.5724 191.954 55.1335 191.951 54.6222V50.4545H193.766V54.2983C193.769 54.6847 193.873 54.9901 194.077 55.2145C194.282 55.4389 194.556 55.5511 194.9 55.5511C195.119 55.5511 195.323 55.5014 195.513 55.402C195.704 55.2997 195.857 55.1491 195.974 54.9503C196.093 54.7514 196.151 54.5057 196.148 54.2131ZM199.416 57V50.4545H201.176V51.5966H201.244C201.363 51.1903 201.564 50.8835 201.845 50.6761C202.126 50.4659 202.45 50.3608 202.816 50.3608C202.907 50.3608 203.005 50.3665 203.11 50.3778C203.216 50.3892 203.308 50.4048 203.387 50.4247V52.0355C203.302 52.0099 203.184 51.9872 203.034 51.9673C202.883 51.9474 202.745 51.9375 202.62 51.9375C202.353 51.9375 202.115 51.9957 201.904 52.1122C201.697 52.2259 201.532 52.3849 201.41 52.5895C201.291 52.794 201.231 53.0298 201.231 53.2969V57H199.416ZM209.102 57L206.605 48.2727H208.62L210.065 54.3366H210.137L211.731 48.2727H213.457L215.047 54.3494H215.123L216.568 48.2727H218.583L216.086 57H214.288L212.626 51.294H212.558L210.9 57H209.102ZM221.817 57.1278C221.143 57.1278 220.564 56.9915 220.078 56.7188C219.595 56.4432 219.223 56.054 218.962 55.5511C218.7 55.0455 218.57 54.4474 218.57 53.7571C218.57 53.0838 218.7 52.4929 218.962 51.9844C219.223 51.4759 219.591 51.0795 220.065 50.7955C220.543 50.5114 221.102 50.3693 221.744 50.3693C222.176 50.3693 222.578 50.4389 222.95 50.5781C223.325 50.7145 223.652 50.9205 223.93 51.196C224.212 51.4716 224.43 51.8182 224.587 52.2358C224.743 52.6506 224.821 53.1364 224.821 53.6932V54.1918H219.294V53.0668H223.112C223.112 52.8054 223.055 52.5739 222.942 52.3722C222.828 52.1705 222.67 52.0128 222.469 51.8991C222.27 51.7827 222.038 51.7244 221.774 51.7244C221.499 51.7244 221.254 51.7884 221.041 51.9162C220.831 52.0412 220.666 52.2102 220.547 52.4233C220.428 52.6335 220.366 52.8679 220.364 53.1264V54.196C220.364 54.5199 220.423 54.7997 220.543 55.0355C220.665 55.2713 220.837 55.4531 221.058 55.581C221.28 55.7088 221.543 55.7727 221.847 55.7727C222.048 55.7727 222.233 55.7443 222.401 55.6875C222.568 55.6307 222.712 55.5455 222.831 55.4318C222.95 55.3182 223.041 55.179 223.104 55.0142L224.783 55.125C224.697 55.5284 224.523 55.8807 224.259 56.1818C223.997 56.4801 223.659 56.7131 223.244 56.8807C222.832 57.0455 222.357 57.1278 221.817 57.1278ZM226.04 57V48.2727H227.855V51.554H227.911C227.99 51.3778 228.105 51.1989 228.256 51.017C228.409 50.8324 228.608 50.679 228.852 50.5568C229.099 50.4318 229.406 50.3693 229.773 50.3693C230.25 50.3693 230.69 50.4943 231.094 50.7443C231.497 50.9915 231.82 51.3651 232.061 51.8651C232.303 52.3622 232.423 52.9858 232.423 53.7358C232.423 54.4659 232.305 55.0824 232.07 55.5852C231.837 56.0852 231.518 56.4645 231.115 56.723C230.714 56.9787 230.266 57.1065 229.768 57.1065C229.416 57.1065 229.116 57.0483 228.869 56.9318C228.625 56.8153 228.425 56.669 228.268 56.4929C228.112 56.3139 227.993 56.1335 227.911 55.9517H227.83V57H226.04ZM227.817 53.7273C227.817 54.1165 227.871 54.456 227.979 54.7457C228.087 55.0355 228.243 55.2614 228.447 55.4233C228.652 55.5824 228.901 55.6619 229.193 55.6619C229.489 55.6619 229.739 55.581 229.943 55.419C230.148 55.2543 230.303 55.027 230.408 54.7372C230.516 54.4446 230.57 54.108 230.57 53.7273C230.57 53.3494 230.517 53.017 230.412 52.7301C230.307 52.4432 230.152 52.2187 229.947 52.0568C229.743 51.8949 229.491 51.8139 229.193 51.8139C228.898 51.8139 228.648 51.892 228.443 52.0483C228.241 52.2045 228.087 52.4261 227.979 52.7131C227.871 53 227.817 53.3381 227.817 53.7273ZM239.081 52.321L237.419 52.4233C237.39 52.2812 237.329 52.1534 237.235 52.0398C237.142 51.9233 237.018 51.831 236.865 51.7628C236.714 51.6918 236.534 51.6562 236.324 51.6562C236.042 51.6562 235.805 51.7159 235.612 51.8352C235.419 51.9517 235.322 52.108 235.322 52.304C235.322 52.4602 235.385 52.5923 235.51 52.7003C235.635 52.8082 235.849 52.8949 236.153 52.9602L237.338 53.1989C237.974 53.3295 238.449 53.5398 238.761 53.8295C239.074 54.1193 239.23 54.5 239.23 54.9716C239.23 55.4006 239.103 55.777 238.85 56.1009C238.6 56.4247 238.257 56.6776 237.819 56.8594C237.385 57.0384 236.883 57.1278 236.315 57.1278C235.449 57.1278 234.758 56.9474 234.244 56.5866C233.733 56.223 233.433 55.7287 233.345 55.1037L235.13 55.0099C235.184 55.2741 235.315 55.4759 235.522 55.6151C235.73 55.7514 235.995 55.8196 236.319 55.8196C236.637 55.8196 236.893 55.7585 237.086 55.6364C237.282 55.5114 237.382 55.3509 237.385 55.1548C237.382 54.9901 237.312 54.8551 237.176 54.75C237.039 54.642 236.829 54.5597 236.545 54.5028L235.412 54.277C234.772 54.1491 234.297 53.9276 233.984 53.6122C233.674 53.2969 233.52 52.8949 233.52 52.4062C233.52 51.9858 233.633 51.6236 233.86 51.3196C234.091 51.0156 234.413 50.7812 234.828 50.6165C235.245 50.4517 235.734 50.3693 236.294 50.3693C237.12 50.3693 237.771 50.544 238.245 50.8935C238.723 51.2429 239.001 51.7187 239.081 52.321ZM240.373 57V50.4545H242.188V57H240.373ZM241.285 49.6108C241.015 49.6108 240.783 49.5213 240.59 49.3423C240.4 49.1605 240.305 48.9432 240.305 48.6903C240.305 48.4403 240.4 48.2259 240.59 48.0469C240.783 47.8651 241.015 47.7741 241.285 47.7741C241.555 47.7741 241.785 47.8651 241.975 48.0469C242.168 48.2259 242.265 48.4403 242.265 48.6903C242.265 48.9432 242.168 49.1605 241.975 49.3423C241.785 49.5213 241.555 49.6108 241.285 49.6108ZM247.124 50.4545V51.8182H243.182V50.4545H247.124ZM244.077 48.8864H245.892V54.9886C245.892 55.1562 245.918 55.2869 245.969 55.3807C246.02 55.4716 246.091 55.5355 246.182 55.5724C246.276 55.6094 246.384 55.6278 246.506 55.6278C246.591 55.6278 246.676 55.6207 246.762 55.6065C246.847 55.5895 246.912 55.5767 246.958 55.5682L247.243 56.919C247.152 56.9474 247.025 56.9801 246.86 57.017C246.695 57.0568 246.495 57.081 246.259 57.0895C245.821 57.1065 245.438 57.0483 245.108 56.9148C244.782 56.7812 244.527 56.5739 244.346 56.2926C244.164 56.0114 244.074 55.6562 244.077 55.2273V48.8864ZM251.219 57.1278C250.546 57.1278 249.966 56.9915 249.48 56.7188C248.998 56.4432 248.625 56.054 248.364 55.5511C248.103 55.0455 247.972 54.4474 247.972 53.7571C247.972 53.0838 248.103 52.4929 248.364 51.9844C248.625 51.4759 248.993 51.0795 249.468 50.7955C249.945 50.5114 250.505 50.3693 251.147 50.3693C251.578 50.3693 251.98 50.4389 252.353 50.5781C252.728 50.7145 253.054 50.9205 253.333 51.196C253.614 51.4716 253.833 51.8182 253.989 52.2358C254.145 52.6506 254.223 53.1364 254.223 53.6932V54.1918H248.696V53.0668H252.515C252.515 52.8054 252.458 52.5739 252.344 52.3722C252.23 52.1705 252.073 52.0128 251.871 51.8991C251.672 51.7827 251.441 51.7244 251.176 51.7244C250.901 51.7244 250.657 51.7884 250.444 51.9162C250.233 52.0412 250.069 52.2102 249.949 52.4233C249.83 52.6335 249.769 52.8679 249.766 53.1264V54.196C249.766 54.5199 249.826 54.7997 249.945 55.0355C250.067 55.2713 250.239 55.4531 250.461 55.581C250.682 55.7088 250.945 55.7727 251.249 55.7727C251.451 55.7727 251.635 55.7443 251.803 55.6875C251.971 55.6307 252.114 55.5455 252.233 55.4318C252.353 55.3182 252.444 55.179 252.506 55.0142L254.185 55.125C254.1 55.5284 253.925 55.8807 253.661 56.1818C253.4 56.4801 253.061 56.7131 252.647 56.8807C252.235 57.0455 251.759 57.1278 251.219 57.1278Z" fill="#6B7280"/>
<defs>
<linearGradient id="paint0_linear_1_397" x1="18" y1="14" x2="55.8" y2="51.8" gradientUnits="userSpaceOnUse">
<stop stop-color="#8B5CF6"/>
<stop offset="1" stop-color="#6D28D9"/>
</linearGradient>
</defs>
</svg>
