<svg width="110" height="110" viewBox="0 0 110 110" fill="none" xmlns="http://www.w3.org/2000/svg">
<g clip-path="url(#clip0_1_2)">
<path d="M84 0H26C11.6406 0 0 11.6406 0 26V84C0 98.3594 11.6406 110 26 110H84C98.3594 110 110 98.3594 110 84V26C110 11.6406 98.3594 0 84 0Z" fill="#1A1B2E"/>
<path d="M84 0H26C11.6406 0 0 11.6406 0 26V84C0 98.3594 11.6406 110 26 110H84C98.3594 110 110 98.3594 110 84V26C110 11.6406 98.3594 0 84 0Z" stroke="#2D2F4A" stroke-width="0.8"/>
<path d="M55 70C67.1503 70 77 60.1503 77 48C77 35.8497 67.1503 26 55 26C42.8497 26 33 35.8497 33 48C33 60.1503 42.8497 70 55 70Z" fill="url(#paint0_linear_1_2)"/>
<path d="M47 47.5C48.933 47.5 50.5 45.933 50.5 44C50.5 42.067 48.933 40.5 47 40.5C45.067 40.5 43.5 42.067 43.5 44C43.5 45.933 45.067 47.5 47 47.5Z" fill="#1A1B2E"/>
<path d="M63 47.5C64.933 47.5 66.5 45.933 66.5 44C66.5 42.067 64.933 40.5 63 40.5C61.067 40.5 59.5 42.067 59.5 44C59.5 45.933 61.067 47.5 63 47.5Z" fill="#1A1B2E"/>
<path opacity="0.9" d="M48.5 44C49.1627 44 49.7 43.4627 49.7 42.8C49.7 42.1373 49.1627 41.6 48.5 41.6C47.8373 41.6 47.3 42.1373 47.3 42.8C47.3 43.4627 47.8373 44 48.5 44Z" fill="white"/>
<path opacity="0.9" d="M64.5 44C65.1627 44 65.7 43.4627 65.7 42.8C65.7 42.1373 65.1627 41.6 64.5 41.6C63.8373 41.6 63.3 42.1373 63.3 42.8C63.3 43.4627 63.8373 44 64.5 44Z" fill="white"/>
<path d="M47 53C52.3333 57 57.6667 57 63 53" stroke="#1A1B2E" stroke-width="2" stroke-linecap="round"/>
<path d="M57 23H53C51.8954 23 51 23.8954 51 25C51 26.1046 51.8954 27 53 27H57C58.1046 27 59 26.1046 59 25C59 23.8954 58.1046 23 57 23Z" fill="#A78BFA"/>
<path d="M55 24C56.6569 24 58 22.6569 58 21C58 19.3431 56.6569 18 55 18C53.3431 18 52 19.3431 52 21C52 22.6569 53.3431 24 55 24Z" fill="#C4B5FD"/>
<path d="M55 25C55.8284 25 56.5 24.3284 56.5 23.5C56.5 22.6716 55.8284 22 55 22C54.1716 22 53.5 22.6716 53.5 23.5C53.5 24.3284 54.1716 25 55 25Z" fill="#7C3AED"/>
<path opacity="0.7" d="M35 44.5C35 43.1193 33.8807 42 32.5 42C31.1193 42 30 43.1193 30 44.5V49.5C30 50.8807 31.1193 52 32.5 52C33.8807 52 35 50.8807 35 49.5V44.5Z" fill="#A78BFA"/>
<path opacity="0.7" d="M80 44.5C80 43.1193 78.8807 42 77.5 42C76.1193 42 75 43.1193 75 44.5V49.5C75 50.8807 76.1193 52 77.5 52C78.8807 52 80 50.8807 80 49.5V44.5Z" fill="#A78BFA"/>
<path d="M71 68H39C32.9249 68 28 72.9249 28 79C28 85.0751 32.9249 90 39 90H71C77.0751 90 82 85.0751 82 79C82 72.9249 77.0751 68 71 68Z" fill="#252640" stroke="#3D3F6E" stroke-width="0.8"/>
<path d="M36 68L30 80L42 68" fill="#252640"/>
<path d="M36 68L30 80L42 68" stroke="#3D3F6E" stroke-width="0.6" stroke-linejoin="round"/>
<path d="M43 81.8C44.5464 81.8 45.8 80.5464 45.8 79C45.8 77.4536 44.5464 76.2 43 76.2C41.4536 76.2 40.2 77.4536 40.2 79C40.2 80.5464 41.4536 81.8 43 81.8Z" fill="#8B5CF6"/>
<path opacity="0.65" d="M55 81.8C56.5464 81.8 57.8 80.5464 57.8 79C57.8 77.4536 56.5464 76.2 55 76.2C53.4536 76.2 52.2 77.4536 52.2 79C52.2 80.5464 53.4536 81.8 55 81.8Z" fill="#8B5CF6"/>
<path opacity="0.3" d="M67 81.8C68.5464 81.8 69.8 80.5464 69.8 79C69.8 77.4536 68.5464 76.2 67 76.2C65.4536 76.2 64.2 77.4536 64.2 79C64.2 80.5464 65.4536 81.8 67 81.8Z" fill="#8B5CF6"/>
</g>
<defs>
<linearGradient id="paint0_linear_1_2" x1="33" y1="26" x2="92.4" y2="85.4" gradientUnits="userSpaceOnUse">
<stop stop-color="#8B5CF6"/>
<stop offset="1" stop-color="#6D28D9"/>
</linearGradient>
<clipPath id="clip0_1_2">
<rect width="110" height="110" fill="white"/>
</clipPath>
</defs>
</svg>
